<?xml version="1.0" standalone="no"?>
<!DOCTYPE svg PUBLIC "-//W3C//DTD SVG 20010904//EN"
 "http://www.w3.org/TR/2001/REC-SVG-20010904/DTD/svg10.dtd">
<svg version="1.0" xmlns="http://www.w3.org/2000/svg"
 width="1200.000000pt" height="1200.000000pt" viewBox="0 0 1200.000000 1200.000000"
 preserveAspectRatio="xMidYMid meet">
<metadata>
Created by potrace 1.16, written by Peter Selinger 2001-2019
</metadata>
<g transform="translate(0.000000,1200.000000) scale(0.100000,-0.100000)"
fill="#000000" stroke="none">
<path d="M3580 7366 l0 -2016 248 0 247 1 124 121 125 122 0 1524 0 1524 -372
370 -372 370 0 -2016z"/>
<path d="M5657 9038 l343 -343 74 74 c41 41 73 78 70 83 -3 5 0 7 8 6 7 -2 12
3 10 10 -1 8 1 11 6 8 12 -7 344 328 335 339 -4 4 -3 5 3 2 6 -3 48 32 95 79
l84 84 -685 0 -685 0 342 -342z"/>
<path d="M8047 9009 l-367 -361 0 -1649 0 -1649 370 0 370 0 0 2010 c0 1106
-1 2010 -3 2010 -1 0 -168 -162 -370 -361z"/>
<path d="M4600 7180 l0 -1165 370 370 370 370 0 425 0 425 -370 370 -370 370
0 -1165z"/>
<path d="M7027 7822 l-367 -367 0 -1048 0 -1047 370 0 370 0 0 1415 c0 778 -1
1415 -3 1415 -1 0 -167 -165 -370 -368z"/>
<path d="M5633 7234 c0 -197 1 -204 19 -188 13 12 15 21 7 30 -7 8 -7 14 1 19
8 5 8 10 0 20 -8 9 -8 15 0 20 6 3 8 10 5 15 -3 5 -1 11 4 14 14 9 23 -42 11
-67 -10 -20 -10 -20 3 -5 8 10 17 15 20 11 4 -3 9 2 13 11 3 9 10 13 15 10 5
-3 8 0 7 8 -2 7 3 12 10 11 6 -2 11 3 10 10 -2 6 3 11 11 9 11 -2 12 0 3 11
-9 10 -9 16 0 25 13 13 18 63 6 56 -4 -3 -8 -1 -8 5 0 22 19 20 34 -4 21 -32
20 -41 -1 -24 -15 11 -16 11 -6 -1 10 -11 9 -18 -5 -34 -13 -16 -10 -15 10 3
15 13 26 31 25 42 -1 10 -3 17 -4 15 -2 -2 -38 32 -80 75 -42 44 -81 79 -87
78 -7 0 -7 -2 1 -5 7 -3 9 -14 4 -32 -4 -15 -7 -37 -6 -50 1 -13 -2 -25 -7
-28 -5 -3 -7 26 -5 66 2 39 0 73 -3 75 -4 2 -6 -88 -7 -201z"/>
<path d="M4868 5840 l-483 -479 488 -1 487 0 0 480 c0 264 -2 480 -5 480 -3 0
-222 -216 -487 -480z"/>
<path d="M3395 4489 l-35 -31 21 -26 21 -27 -121 -3 -121 -3 0 -36 0 -36 -74
79 -74 79 -38 -37 -38 -37 50 -53 c27 -29 59 -66 71 -82 l23 -28 39 31 c35 28
46 31 105 31 77 0 77 0 41 -97 -34 -89 -119 -232 -131 -220 -2 1 3 27 11 57
13 49 13 55 -3 66 -16 13 -24 16 -48 18 -7 1 -41 33 -77 71 l-66 70 -37 -37
-37 -37 50 -58 c28 -32 60 -67 72 -77 21 -19 22 -19 46 4 14 13 25 19 25 12 0
-25 -82 -275 -120 -367 -58 -139 -57 -135 -26 -135 15 0 41 -7 58 -16 20 -11
33 -12 37 -5 4 5 24 82 46 171 21 88 42 160 45 160 3 0 18 -9 35 -20 l29 -19
28 32 28 32 -1 -179 -2 -180 54 0 c50 -1 54 1 53 22 -1 26 4 27 27 6 17 -15
21 -14 56 7 21 13 62 45 90 73 l53 49 49 -46 c27 -25 75 -58 107 -74 l59 -29
38 42 38 42 -65 31 c-36 17 -87 49 -115 71 l-50 40 39 73 c43 80 73 183 85
290 l7 67 -96 0 c-53 0 -96 3 -96 6 0 4 5 24 12 45 l11 39 114 0 113 0 0 46 0
46 -130 -4 c-71 -2 -130 -1 -130 2 0 10 -101 120 -110 120 -5 0 -25 -14 -45
-31z m41 -271 c-18 -51 -49 -124 -67 -163 l-34 -70 -3 53 c-2 44 4 70 33 140
20 48 40 97 45 110 6 14 18 22 35 22 l25 0 -34 -92z m24 -354 l32 -66 -28 -30
c-30 -31 -117 -98 -128 -98 -3 0 -6 47 -6 105 0 95 7 123 25 95 11 -18 23 -11
45 25 12 19 23 35 24 35 2 0 18 -30 36 -66z"/>
<path d="M9303 4469 l-27 -42 39 -33 40 -34 -67 0 -68 0 0 -40 0 -40 175 0
175 0 0 40 0 40 -60 0 c-55 0 -75 10 -50 25 6 3 10 10 10 14 0 8 -125 111
-134 111 -3 0 -18 -19 -33 -41z"/>
<path d="M2490 4255 l0 -245 -65 0 c-56 0 -76 6 -150 42 -69 35 -85 47 -85 65
0 13 3 23 8 23 4 0 39 -18 79 -39 53 -29 74 -37 81 -28 14 18 44 78 40 82 -2
2 -37 21 -78 44 l-75 41 75 0 75 0 0 40 0 40 -102 0 c-83 0 -103 3 -103 14 0
10 16 17 48 21 92 12 104 16 98 32 -3 8 -9 33 -12 54 -5 32 -10 39 -23 33 -30
-13 -136 -34 -174 -34 -22 0 -36 -4 -32 -10 6 -9 -30 -7 -160 10 -33 4 -61 6
-63 5 -2 -2 11 -25 27 -52 l31 -50 80 5 c69 4 80 2 80 -12 0 -14 -15 -16 -110
-16 l-110 0 0 -40 0 -40 78 0 77 -1 -30 -25 c-16 -14 -60 -46 -98 -70 l-67
-45 32 -39 33 -39 35 21 c19 12 64 42 100 67 59 41 63 43 43 15 -36 -50 -127
-130 -186 -164 l-57 -32 32 -39 c17 -21 33 -39 35 -39 2 0 15 7 28 16 23 15
26 14 69 -22 52 -43 51 -46 -44 -70 -36 -9 -71 -18 -77 -20 -9 -2 -6 -16 11
-48 13 -25 26 -51 28 -57 3 -9 12 -7 30 5 26 17 26 17 47 -17 12 -19 21 -47
21 -62 l0 -28 56 7 c102 12 134 43 134 127 l0 41 57 -46 58 -45 28 27 29 27
-4 -65 -3 -65 53 -3 52 -3 0 55 0 56 80 0 80 0 0 -50 0 -50 50 0 50 0 0 225 0
224 -67 3 -68 3 -3 103 -3 102 96 0 95 0 0 40 0 40 -96 0 -97 0 5 100 5 100
-54 0 -53 0 0 -245z m140 -423 l0 -98 -80 1 -80 0 0 97 0 98 80 0 80 0 0 -98z"/>
<path d="M5577 4403 l6 -93 -70 0 c-38 0 -112 -3 -163 -7 l-93 -6 7 96 7 97
-55 0 -56 0 0 -96 0 -96 -82 3 -82 3 0 -52 -1 -52 82 0 83 0 0 -69 0 -68 -57
-16 c-32 -9 -75 -19 -95 -22 -35 -7 -36 -8 -23 -29 7 -11 18 -40 25 -64 l11
-43 64 35 c35 20 66 36 69 36 3 0 6 -68 6 -151 l0 -151 -68 4 -69 3 18 -30 c9
-16 20 -45 24 -64 l7 -33 65 4 c58 4 69 8 94 36 l28 31 19 -26 19 -26 74 23
c86 26 160 61 210 101 20 16 40 29 44 29 4 0 25 -16 47 -36 42 -37 189 -114
220 -114 10 0 18 4 18 10 0 5 14 25 31 45 28 32 29 35 12 41 -108 38 -253 111
-253 128 0 2 20 33 44 69 24 36 55 101 69 144 41 125 45 117 -48 123 l-80 5 0
48 -1 47 128 0 128 0 0 45 0 45 -125 0 c-93 0 -125 3 -126 13 -1 6 0 48 1 93
l2 81 -61 0 -60 0 6 -94z m3 -233 l0 -50 -86 0 c-77 0 -86 2 -91 20 -7 25 -2
25 -73 -5 -33 -14 -62 -25 -65 -25 -3 0 -5 20 -5 45 l0 45 75 0 c43 0 75 4 75
10 0 6 35 10 85 10 l85 0 0 -50z m-161 -150 c12 0 25 -18 40 -54 12 -30 38
-80 57 -111 18 -32 34 -59 34 -61 0 -2 -24 -19 -52 -38 -50 -33 -134 -66 -205
-81 l-33 -7 0 170 0 169 68 30 67 30 3 -24 c2 -14 10 -23 21 -23z"/>
<path d="M6186 4426 c-31 -41 -75 -91 -98 -111 l-41 -37 29 -24 c16 -13 23
-23 17 -24 -8 0 -13 -15 -13 -40 l0 -40 40 0 41 0 -6 -37 c-3 -21 -8 -48 -11
-60 -4 -23 -4 -23 131 -23 128 0 135 -1 135 -20 0 -12 7 -20 17 -20 15 0 16
-2 2 -15 -17 -18 -176 -85 -201 -85 -14 0 -18 -8 -18 -36 l0 -37 78 6 77 5
-102 -25 -103 -24 0 -34 c0 -34 0 -34 53 -37 l52 -3 -88 -44 -88 -44 33 -34
c26 -27 38 -33 58 -28 30 7 173 88 218 124 29 24 31 27 15 39 -14 10 -8 12 40
12 l57 0 0 -51 0 -52 -61 7 -61 7 21 -34 c11 -19 21 -45 21 -57 0 -22 3 -22
56 -16 64 7 109 28 124 55 5 11 10 49 10 84 l0 64 37 6 c20 4 38 5 40 3 2 -2
-6 -15 -17 -29 l-21 -26 48 -27 c27 -15 80 -47 119 -70 40 -24 76 -44 81 -44
5 0 24 15 42 34 l32 33 -50 33 c-28 17 -51 35 -51 38 0 3 16 22 35 42 l35 36
-100 59 c-55 33 -93 61 -85 63 8 2 15 7 15 10 0 6 -40 70 -56 90 -1 2 -13 -3
-26 -12 -30 -19 -186 -86 -201 -86 -7 0 12 14 42 31 37 22 50 34 43 41 -8 8 6
19 46 38 31 15 72 39 90 55 l33 28 22 -21 c27 -25 99 -57 148 -66 35 -6 38 -5
48 26 6 17 18 40 27 49 18 20 18 20 -70 34 -42 7 -106 35 -106 46 0 4 13 31
28 61 16 29 31 63 34 76 5 19 13 22 52 22 l46 0 0 40 0 40 -116 0 c-99 0 -115
2 -110 15 3 8 9 21 12 29 6 16 -70 61 -86 51 -4 -3 -26 -36 -47 -73 l-38 -67
-3 37 -3 36 -142 -5 c-118 -5 -140 -3 -129 8 6 7 12 16 12 20 0 6 -75 59 -83
59 -3 0 -30 -33 -61 -74z"/>
<path d="M8581 4489 c-49 -20 -249 -50 -323 -48 -43 1 -78 0 -79 -2 -3 -9 60
-130 81 -156 l22 -28 -57 -3 -56 -3 3 -41 3 -41 80 2 80 2 -50 -51 c-27 -28
-69 -63 -93 -77 l-42 -25 32 -37 c18 -20 36 -35 41 -33 4 1 7 -86 6 -195 l-2
-198 51 -2 52 -1 0 39 0 39 110 0 110 0 0 -35 0 -35 50 0 50 0 0 133 c1 96 3
127 11 114 9 -16 16 -10 61 45 27 35 53 64 57 66 4 1 6 -48 5 -110 -3 -179 4
-161 -54 -153 l-50 7 15 -36 c8 -19 15 -47 15 -61 0 -23 4 -25 43 -25 96 0
127 47 127 190 0 63 3 90 10 80 5 -8 10 -12 12 -10 62 84 90 120 93 120 3 0 5
-61 5 -136 l0 -136 -56 7 -55 7 15 -31 c9 -16 16 -44 16 -61 0 -28 2 -30 39
-30 21 0 52 5 70 11 60 21 61 27 61 459 l0 390 -92 1 c-51 1 -149 2 -218 3
l-125 1 -11 45 c-11 47 -24 55 -63 39z m136 -171 l67 -3 3 -89 c1 -50 -1 -86
-6 -80 -4 5 -19 35 -31 67 -22 54 -41 70 -55 47 -5 -9 -105 -15 -105 -7 0 1 9
20 20 42 11 21 23 55 27 74 l8 36 3 -42 3 -42 66 -3z m-29 -221 c21 -57 28
-67 44 -63 61 20 61 16 0 -43 -34 -34 -67 -61 -72 -61 -20 0 -11 68 11 83 20
14 18 16 -38 65 -32 28 -69 60 -83 71 l-25 21 69 -3 69 -2 25 -68z"/>
<path d="M4618 4358 l4 -133 -56 81 c-31 45 -65 89 -76 99 -20 18 -21 18 -60
-20 l-39 -38 31 -35 c17 -20 46 -60 65 -89 18 -29 36 -53 39 -53 3 0 22 9 44
20 22 11 42 20 45 20 3 0 5 -58 5 -129 0 -108 -3 -130 -16 -135 -32 -12 -37
-5 -14 19 l23 25 -94 95 -93 96 -18 -23 c-13 -17 -18 -19 -19 -8 -1 8 -2 24
-3 34 -1 17 -8 19 -73 17 l-73 -2 0 49 c0 49 0 49 38 56 20 3 52 6 70 6 35 0
38 8 26 81 l-6 37 -54 -14 c-93 -25 -240 -43 -298 -37 -31 3 -56 3 -56 0 0
-18 63 -105 73 -102 7 2 31 6 55 9 l42 6 0 -46 0 -46 -90 4 -90 3 0 -47 0 -48
80 0 c44 0 80 -2 80 -5 0 -13 -96 -195 -140 -265 l-47 -77 49 -21 49 -21 42
67 c24 37 53 83 66 102 l23 35 -6 -50 c-3 -27 -9 -110 -12 -182 l-7 -133 59 0
59 0 -3 187 -3 188 20 -25 c11 -14 16 -26 12 -28 -7 -2 4 -81 13 -89 1 -2 43
6 92 16 49 11 124 26 168 34 l78 15 -4 -154 -4 -154 57 0 57 0 -5 164 -6 163
69 12 c133 22 123 16 112 64 -5 23 -11 43 -13 45 -2 2 -35 -3 -74 -12 -38 -9
-75 -16 -82 -16 -8 0 -10 67 -8 260 l4 260 -56 0 -56 0 5 -132z m-262 -255
c-3 -4 30 -44 76 -90 56 -56 77 -84 67 -87 -17 -6 -177 -36 -192 -36 -7 0 5
12 26 27 20 14 37 29 37 32 0 6 -57 78 -106 134 l-24 27 62 0 c34 0 58 -3 54
-7z"/>
<path d="M7670 4435 l0 -55 -65 0 -65 0 0 -90 0 -90 -30 0 -30 0 0 130 0 130
-140 0 -140 0 0 -130 0 -130 -40 0 -40 0 0 -90 0 -90 40 0 40 0 0 -230 0 -230
51 0 51 0 -7 46 c-8 58 10 52 20 -6 6 -34 11 -40 31 -40 41 0 101 30 113 56 7
16 11 94 11 214 l0 190 34 0 c24 0 36 5 40 18 2 9 4 1 3 -18 l-2 -35 238 -3
237 -2 0 40 0 40 -240 0 c-153 0 -240 4 -240 10 0 6 88 10 243 10 l242 0 0
150 0 150 -62 0 -63 0 0 55 0 55 -50 0 -50 0 0 -55 c0 -42 -3 -55 -15 -55 -12
0 -15 13 -15 55 l0 55 -50 0 -50 0 0 -55z"/>
<path d="M9580 4375 l0 -115 115 0 c108 0 115 -1 115 -20 0 -19 -7 -20 -98
-20 l-98 0 1 -40 0 -40 98 0 c97 0 97 0 97 -25 l0 -25 -125 0 -125 0 0 -40 0
-40 43 6 c41 5 43 4 65 -35 12 -22 22 -42 22 -45 0 -4 -18 -6 -41 -6 l-40 0 3
-37 3 -38 98 1 97 0 0 -28 0 -28 -125 0 -125 0 0 -40 0 -40 125 0 125 0 0 -85
0 -85 50 0 50 0 0 85 0 85 135 0 135 0 0 40 0 40 -135 0 -135 0 0 30 0 29 100
-4 100 -4 0 39 0 40 -50 0 c-27 0 -50 2 -50 4 0 3 9 21 21 40 20 35 23 36 80
36 l59 0 0 40 0 40 -130 0 -130 0 0 25 c0 25 0 25 95 25 l95 0 0 40 0 40 -95
0 c-88 0 -95 1 -95 20 0 19 7 20 115 20 l115 0 0 115 0 115 -280 0 -280 0 0
-115z"/>
<path d="M9240 4178 l0 -43 150 0 150 0 0 43 0 42 -150 0 -150 0 0 -42z"/>
<path d="M9250 4035 l0 -45 145 0 145 0 0 45 0 45 -145 0 -145 0 0 -45z"/>
<path d="M7567 3869 c1 -59 6 -94 13 -99 9 -6 9 -9 -1 -12 -10 -3 -6 -17 14
-51 l28 -47 -60 0 -59 0 0 -35 0 -35 284 0 284 0 0 35 0 35 -65 0 c-36 0 -65
2 -65 5 0 3 12 23 26 45 14 21 23 44 19 49 -3 6 -1 11 4 11 7 0 11 35 11 95
l0 95 -217 0 -218 0 2 -91z"/>
<path d="M9230 3730 l0 -190 56 0 56 0 -7 40 -7 40 61 0 61 0 0 -41 0 -40 48
3 47 3 3 188 2 187 -160 0 -160 0 0 -190z m220 40 l0 -70 -60 0 -60 0 0 70 0
70 60 0 60 0 0 -70z"/>
</g>
</svg>
